<svg width="446" height="298" viewBox="0 0 446 298" fill="none" xmlns="http://www.w3.org/2000/svg">
<path d="M377.385 71.52V186.392C377.385 186.392 338.943 229.655 229.82 186.392C120.697 143.128 68.6154 186.392 68.6154 186.392V73.1677" stroke="white" stroke-width="3"/>
<path d="M8.02613 98.2683L220.79 160.92L440.407 96.4354C442.136 94.8893 443.529 92.9741 444.491 90.8185C445.453 88.663 445.963 86.317 445.985 83.9384C446.137 80.2416 445.107 76.5975 443.058 73.5805C441.009 70.5635 438.058 68.3453 434.67 67.2757L227.484 0.624898C224.454 -0.208299 221.27 -0.208299 218.24 0.624898L11.0542 67.2757C8.11242 68.2657 5.50938 70.1285 3.56203 72.6375C1.61468 75.1464 0.407039 78.1932 0.086153 81.4068C-0.234733 84.6205 0.344977 87.8623 1.7547 90.7377C3.16442 93.613 5.34332 95.9979 8.02613 97.6018V98.2683Z" fill="white"/>
</svg>
